<svg width="92" height="24" viewBox="0 0 92 24" fill="none" xmlns="http://www.w3.org/2000/svg">
<g clip-path="url(#clip0_911_270)">
<path d="M9.69051 0H0V9.69051H9.69051V0Z" fill="black"/>
<path d="M22.3165 12.626H12.626V22.3165H22.3165V12.626Z" fill="black"/>
<path fill-rule="evenodd" clip-rule="evenodd" d="M19.4956 10.2969H22.3195L22.3165 0.0573077V0.0542908H12.0769V2.87818H19.4956V10.2969Z" fill="black"/>
<path fill-rule="evenodd" clip-rule="evenodd" d="M9.74785 19.4927H2.87821V12.626L0.0573383 12.623V12.626H0.0543213L0.0573383 22.3135H0.0603552V22.3165H9.74785H9.75086L9.74785 19.4927Z" fill="black"/>
<path d="M35.205 12.0106H31.4036V18.4488H28.1573V0.479706H35.205C39.3352 0.479706 41.5406 2.78769 41.5406 6.23307C41.5406 9.67845 39.3352 12.0106 35.205 12.0106ZM35.0783 3.34281H31.4036V9.14746H35.0783C37.2595 9.14746 38.2461 7.98291 38.2461 6.2572C38.2461 4.53451 37.2565 3.34281 35.0783 3.34281Z" fill="black"/>
<path d="M47.3724 18.6027C45.2183 18.6027 43.7732 17.5648 43.7732 15.0547V0.479706H46.9682V14.5237C46.9682 15.284 47.1462 15.7908 48.2353 15.7908C48.5129 15.7908 48.5913 15.7667 48.7663 15.7667V18.4277C48.1327 18.5514 48.006 18.6027 47.3724 18.6027Z" fill="black"/>
<path d="M61.9232 18.6539C60.5535 18.6539 59.7932 17.7911 59.6937 16.8045C59.0842 17.8695 57.5637 18.7806 55.6902 18.7806C52.5465 18.7806 50.9233 16.8045 50.9233 14.6474C50.9233 12.1373 52.8753 10.6921 55.3854 10.5172L59.2622 10.2396V9.42804C59.2622 8.18505 58.8308 7.34935 57.0327 7.34935C55.5634 7.34935 54.7006 8.00704 54.6252 9.2259H51.5569C51.7349 6.26022 54.0912 4.9418 57.0327 4.9418C59.2894 4.9418 61.2142 5.65079 61.9745 7.62992C62.3034 8.46562 62.3546 9.4039 62.3546 10.2909V15.1844C62.3546 15.7938 62.5568 16.0201 63.0908 16.0201C63.2929 16.0201 63.4951 15.9688 63.4951 15.9688V18.3009C62.9611 18.5272 62.6835 18.6539 61.9232 18.6539ZM59.2622 12.5959L55.9164 12.8493C54.954 12.9247 54.0157 13.507 54.0157 14.572C54.0157 15.5857 54.9027 16.2192 55.8923 16.2192C57.8684 16.2192 59.2622 15.1542 59.2622 13.2023V12.5959Z" fill="black"/>
<path d="M75.8918 16.6507C74.9807 17.7911 73.3817 18.7294 71.3784 18.7294C69.3752 18.7294 67.7038 17.7669 66.7896 16.6507C65.8 15.4077 65.3445 13.7604 65.3445 11.8356C65.3445 9.90773 65.8 8.26047 66.7896 7.01747C67.7007 5.9012 69.3752 4.93878 71.3784 4.93878C73.3817 4.93878 74.9777 5.87706 75.8918 7.01747C76.5013 7.8049 76.8542 8.84274 76.9055 9.88058H73.786C73.7618 9.39786 73.608 8.99359 73.4058 8.66474C73.0257 8.08246 72.3408 7.67517 71.3784 7.67517C70.5156 7.67517 69.882 8.03118 69.4536 8.48674C68.6933 9.32244 68.5666 10.5896 68.5666 11.8326C68.5666 13.0756 68.6933 14.3155 69.4536 15.1542C69.885 15.6098 70.5186 15.9899 71.3784 15.9899C72.3408 15.9899 73.0257 15.5827 73.4058 15.0004C73.608 14.6715 73.7618 14.2642 73.786 13.7845H76.9055C76.8542 14.8254 76.4982 15.8632 75.8918 16.6507Z" fill="black"/>
<path d="M85.3711 20.7055C84.7134 22.4282 83.6213 24 81.3163 24C80.2755 24 79.5665 23.8492 78.8816 23.6712V21.0343C79.7173 21.1852 79.9466 21.2636 80.6556 21.2636C81.2379 21.2636 81.8473 21.0615 82.1762 20.274L82.9364 18.4246L77.7412 5.26764H81.2137L84.6621 14.7982L87.9567 5.26764H91.1758L85.3711 20.7055Z" fill="black"/>
</g>
<defs>
<clipPath id="clip0_911_270">
<rect width="91.1758" height="24" fill="white"/>
</clipPath>
</defs>
</svg>
