<svg xmlns="http://www.w3.org/2000/svg" xmlns:xlink="http://www.w3.org/1999/xlink" viewBox="0 0 382.68 93.16">
    <defs>
        <style>.cls-1{fill:none;}.cls-2{clip-path:url(#clip-path);}.cls-3{clip-path:url(#clip-path-2);}.cls-4{fill:#5ac8d7;}.cls-5{fill:#fff;}.cls-6{fill:#ffc800;}.cls-7{fill:#ff5050;}.cls-8{fill:#9b96ff;}</style>
        <clipPath id="clip-path"><rect class="cls-1" width="93.16" height="93.16" rx="21"/></clipPath><clipPath id="clip-path-2"><rect class="cls-1" width="93.16" height="93.16"/></clipPath>
    </defs>
    <g id="LINE_LOGO" data-name="LINE LOGO">
        <path d="M144.29,40.9c-4.31-.94-8-1.74-8-3.77,0-2.66,3.5-3.22,6.43-3.22a25.66,25.66,0,0,1,12.09,3.37l.15.08a.67.67,0,0,0,.94-.33l4-9.6a.84.84,0,0,0-.34-1.05,34.49,34.49,0,0,0-16.75-4c-12.61,0-20.76,6-20.76,15.42,0,10.78,10.06,13,17.41,14.66,4.39,1,8.18,1.83,8.18,4,0,2.34-3.54,2.83-6.5,2.83A27.54,27.54,0,0,1,126.69,55l-.2-.14a.64.64,0,0,0-.92.27l-4.25,9.56a.85.85,0,0,0,.26,1.06c4.45,3.1,12.08,5.1,19.44,5.1,15.33,0,20.76-8.27,20.76-15.36C161.78,44.7,151.67,42.5,144.29,40.9Z"/>
        <path d="M212.4,23.25a1.3,1.3,0,0,0-1.12.63L197.06,47.81a.44.44,0,0,1-.76,0L181.73,23.88a1.33,1.33,0,0,0-1.13-.63H170.31a.74.74,0,0,0-.74.74V69.17a.74.74,0,0,0,.74.74h11.94a.74.74,0,0,0,.74-.74V50a.34.34,0,0,1,.64-.18l9.19,15a1.33,1.33,0,0,0,1.13.63h5.11a1.31,1.31,0,0,0,1.12-.64l9.28-15.57a.34.34,0,0,1,.64.17l.11,19.73a.74.74,0,0,0,.74.74h11.88a.72.72,0,0,0,.73-.74L223.44,24a.75.75,0,0,0-.75-.74Z"/>
        <path d="M249.66,23.25a1.12,1.12,0,0,0-1,.68l-20,45.31a.48.48,0,0,0,.44.67H242.4a1.11,1.11,0,0,0,1-.68l3-7.38a1.1,1.1,0,0,1,1-.68h16.43a1.1,1.1,0,0,1,1,.68l3,7.38a1.1,1.1,0,0,0,1,.68h13.59a.48.48,0,0,0,.44-.67L262.84,23.92a1.13,1.13,0,0,0-1-.67Zm10.26,26.19a.5.5,0,0,1-.47.68h-7.64a.49.49,0,0,1-.46-.68l4-10a.3.3,0,0,1,.55,0Z"/>
        <path d="M308.93,34.55a12.46,12.46,0,0,1,10,5l.08.1a.71.71,0,0,0,1,.07l8.22-7.44a.79.79,0,0,0,.06-1.1c-4.6-5.76-11.52-8.8-20-8.8-14.82,0-25.58,10.19-25.58,24.23s10.76,24.23,25.58,24.23c8.48,0,15.4-3,20-8.79a.81.81,0,0,0-.06-1.11L320,53.47a.71.71,0,0,0-1,.07l-.08.1a12.46,12.46,0,0,1-10,5c-7,0-11.71-4.83-11.71-12S301.92,34.55,308.93,34.55Z"/>
        <path d="M363.8,44.64a.88.88,0,0,1,.05-1.13l17.76-19.25a.6.6,0,0,0-.45-1H367a1.71,1.71,0,0,0-1.24.54L350.83,39.84a.46.46,0,0,1-.79-.31V24a.74.74,0,0,0-.74-.74H336.52a.74.74,0,0,0-.74.74V69.17a.74.74,0,0,0,.74.74H349.3a.74.74,0,0,0,.74-.74V58.9a1.91,1.91,0,0,1,.5-1.28l2.87-3.06a.64.64,0,0,1,1,0L366,69.33a1.52,1.52,0,0,0,1.2.58h14.9a.6.6,0,0,0,.48-1Z"/>
        <g class="cls-2">
            <g class="cls-3">
                <rect class="cls-4" x="-6.62" y="-6.62" width="106.4" height="106.4"/>
                <path class="cls-5" d="M38.12-10.73a16.28,16.28,0,0,0,0,23,16.29,16.29,0,0,0,20.26,2.21,3.32,3.32,0,0,0,.26.28A8.07,8.07,0,0,0,65.77,17,10.69,10.69,0,0,0,76.48,31.22a7.59,7.59,0,0,0,6,4.48,14.67,14.67,0,0,0,24.1,15.56L145.1,12.77,79.86-52.47,39.19-11.79l.05,0C38.86-11.42,38.48-11.09,38.12-10.73Z"/>
                <path class="cls-5" d="M9.64,33.78c0,.15,0,.29,0,.44a5.26,5.26,0,0,1,7,3A9.54,9.54,0,1,1,29.54,51.07a7.48,7.48,0,0,1,2.85,5.87,7.58,7.58,0,0,1-7.65,7.44H-7.12V34A8.49,8.49,0,0,1,1,25.4,8.38,8.38,0,0,1,9.64,33.78Z"/>
                <polygon class="cls-6" points="99.87 23.48 99.87 99.78 -6.62 99.78 -6.62 58.83 99.87 23.48"/>
                <path d="M96.37,47.19l5.29-2.41c5.6-2.57,8.91-7.2,8.66-12.09v-.06l-.13-2.07h0l0-.24s0-.05,0-.08c-.69-7-8.67-12.19-18-11.59a20.87,20.87,0,0,0-5.8,1.14c-3.42,1.33-7.45,2.72-13,4.65-7.77,2.68-18.4,6.35-34.42,12.28-7.48,2.79-15.07,5.21-20.84,7-2.8.88-9.46,3.52-10.89,9.22a12.77,12.77,0,0,0-.24,2.73c0,.34.19,2.72.23,3C8.45,66.39,19.57,70.9,26.72,72a36.44,36.44,0,0,0,5.8.51A31.41,31.41,0,0,0,45.1,69.76l.75-.32,12.22-5.23Q66.62,60.52,75,56.8c3.9-1.73,7.52-3.35,10.76-4.81Z"/>
                <path d="M55.52,63.4h0a7.46,7.46,0,0,0-4.62,1.88c-2.72,2.29-3.53,5.49-1.88,7.46a3.91,3.91,0,0,0,3,1.33,7.47,7.47,0,0,0,4.61-1.89,8,8,0,0,0,2.4-3.26,4.09,4.09,0,0,0-.52-4.19,3.85,3.85,0,0,0-3-1.33Z"/>
                <path class="cls-7" d="M55.48,65.68a1.64,1.64,0,0,1,1.32.53c.79.94.09,2.84-1.57,4.23a5.23,5.23,0,0,1-3.13,1.34,1.68,1.68,0,0,1-1.32-.52c-.79-1-.09-2.84,1.58-4.24a5.18,5.18,0,0,1,3.12-1.34"/>
                <polygon points="49.03 72.75 45.04 68.34 52.18 64.38 49.03 72.75"/>
                <path d="M94,46.54h0a6.36,6.36,0,0,0-3.93,1.61c-2.31,1.94-3,4.66-1.6,6.34a3.29,3.29,0,0,0,2.59,1.13A6.38,6.38,0,0,0,95,54a6.93,6.93,0,0,0,2-2.77,3.51,3.51,0,0,0-.44-3.57A3.29,3.29,0,0,0,94,46.54Z"/>
                <path class="cls-7" d="M93.83,48.76a1.25,1.25,0,0,1,1,.4c.61.72.07,2.16-1.2,3.22a3.92,3.92,0,0,1-2.38,1,1.25,1.25,0,0,1-1-.4c-.61-.72-.07-2.16,1.2-3.22a3.9,3.9,0,0,1,2.38-1"/>
                <polygon points="88.64 54.66 85.13 51.06 91.08 47.77 88.64 54.66"/>
                <path class="cls-8" d="M108,30.69h0a8.13,8.13,0,0,0-1.26-3.82c-2.25-3.62-7.26-6.05-13-6.05-.44,0-.88,0-1.33,0a19.18,19.18,0,0,0-5.13,1c-3.46,1.34-7.51,2.74-13.12,4.68C66.3,29.22,55.68,32.89,39.69,38.8c-7.53,2.81-15.16,5.24-21,7.06-2.24.7-7.35,2.68-9,6.61a5.61,5.61,0,0,0-.34,1,6.79,6.79,0,0,0-.11,2.74v0c1.08,6.55,11.42,10.57,17.68,11.56A28.25,28.25,0,0,0,43.23,66l.86-.35q5.52-2.34,11-4.7c6.36-2.74,12.66-5.5,18.84-8.24l9.17-4.1,10-4.5,7.48-3.41c4.6-2.11,7.37-5.74,7.37-9.55C108,31,108,30.85,108,30.69Z"/>
            </g>
        </g>
    </g>
</svg>