<svg width="80" height="80" viewBox="-2 -2 75 75" fill="none" xmlns="http://www.w3.org/2000/svg">
<rect x="20" y="16" width="2" height="16" fill="white"/>
<rect x="26" y="16" width="2" height="16" fill="white"/>
<path d="M24 47C11.2975 47 1 36.7025 1 24H-1C-1 37.8071 10.1929 49 24 49V47ZM47 24C47 36.7025 36.7025 47 24 47V49C37.8071 49 49 37.8071 49 24H47ZM24 1C36.7025 1 47 11.2975 47 24H49C49 10.1929 37.8071 -1 24 -1V1ZM24 -1C10.1929 -1 -1 10.1929 -1 24H1C1 11.2975 11.2975 1 24 1V-1Z" fill="white"/>
</svg>
